Torque
version=1
nRows=25
nColumns=28
inDegrees=yes
endheader
time	lumbar_ext	lumbar_bend	lumbar_rot	shoulder_flex_r	shoulder_add_r	shoulder_rot_r	elbow_flex_r	pro_sup_r	wrist_flex_r	wrist_dev_r	shoulder_flex_l	shoulder_add_l	shoulder_rot_l	elbow_flex_l	pro_sup_l	wrist_flex_l	wrist_dev_l	hip_flexion_r	hip_adduction_r	hip_rotation_r	knee_angle_r	ankle_angle_r	hip_flexion_l	hip_adduction_l	hip_rotation_l	knee_angle_l	ankle_angle_l
0.000000	0.114303	-16.652085	-50.890219	-38.621254	-11.141470	-64.634800	-2.834467	23.971230	-3.222156	-3.160190	-42.963400	-57.774168	17.365357	-3.726889	36.590427	4.953286	4.761886	-65.355752	-9.251660	-50.957295	48.876116	62.743552	39.914703	-10.847746	-54.051143	109.081095	-5.207989
0.010000	8.190417	-41.696229	-7.526426	-48.027873	-4.454477	-17.605023	-18.645614	4.615949	-2.451703	-3.317951	-18.980550	-13.242495	-8.973828	0.065196	5.954678	2.358591	5.219489	23.349944	33.286408	94.954294	26.652865	15.518274	43.271985	22.514866	-98.147374	15.276231	12.424296
0.020000	-8.521636	-30.080223	-25.136784	-17.691040	-13.664704	-34.630068	-22.059740	5.066017	-1.623074	-1.353428	-2.422119	-1.471887	-9.490360	2.805395	11.054294	0.689199	3.117597	-22.418215	-0.000802	-1.121728	41.541311	20.728694	58.503366	38.022505	-82.692298	0.552352	-16.087770
0.030000	-25.919933	-4.593431	-40.409780	-5.264426	-11.050729	-38.697243	-9.894430	0.442916	-3.188590	-1.084919	-3.658681	9.780277	2.454435	4.708190	17.774045	-0.239945	0.841292	-45.345793	26.229235	-57.986641	15.216668	38.078096	46.668142	28.834581	-36.200653	38.305512	-35.724498
0.040000	-36.332843	-0.019412	-24.033400	5.626515	6.277248	-37.330270	8.858742	1.488701	-3.161917	-1.159448	-0.340694	20.194123	-5.410794	-8.780742	13.577738	-0.732604	1.493848	-24.624542	36.641038	-19.767766	46.942896	39.164636	37.540426	22.948200	-44.575050	68.016525	-7.428885
0.050000	-31.448267	-5.802410	-12.601253	23.013024	12.393369	-44.506405	10.464102	0.929138	-2.927094	-1.876877	3.316489	11.600717	-6.688280	3.527084	1.474607	-0.341241	0.741628	-1.614901	9.701794	-10.613556	85.636693	31.761575	60.510084	54.508655	-49.239144	96.554080	29.392295
0.060000	-37.418602	-1.634257	-8.388322	35.044372	9.457231	-45.658983	11.968590	4.389527	-3.228306	-1.218556	0.381320	9.718954	-5.763903	18.150341	-4.457157	-0.134429	-0.192220	1.879383	9.698787	-23.695942	78.342140	10.733243	72.208650	46.625571	-16.889190	128.229046	16.443808
0.070000	-46.506500	5.035802	1.540900	31.463794	5.905560	-44.953853	18.853171	6.736053	-3.603470	0.046742	-10.547794	11.865703	-7.582282	18.584181	-2.586119	-0.736752	0.699646	-4.119052	20.686694	4.248146	70.559379	-9.041334	67.739720	18.628670	-18.223504	139.545858	14.389083
0.080000	-43.768816	3.279736	-1.585221	28.267343	-0.090431	-44.335734	14.956942	3.324943	-3.159737	1.902627	-11.551114	8.959277	-0.328615	11.260225	-0.427016	0.038268	0.680702	-24.706701	20.508226	-18.939925	71.046969	-2.746321	86.773701	9.363257	-13.912168	159.232467	16.414307
0.090000	-37.993762	5.758581	-0.820302	18.133493	-3.046985	-44.146072	11.140298	0.974598	-3.024844	2.572371	-10.844983	8.035142	0.996778	-4.342446	0.985970	0.032659	1.425352	-36.362180	13.285631	-3.558821	86.137301	5.411877	94.041216	3.214362	-11.434786	172.265929	22.802413
0.100000	-36.542981	4.609118	1.832676	11.547569	-3.317661	-43.578003	8.099243	-1.823879	-2.841359	2.907898	-2.521478	3.420860	2.362610	-5.243268	-0.991846	0.135887	0.940883	-46.518232	6.587161	-8.631684	72.349705	-1.699122	86.260400	-2.190576	-21.074644	180.411226	21.068089
0.110000	-27.160037	2.572370	3.968745	5.190931	-2.486232	-43.634683	0.767524	-1.691856	-2.881439	3.038447	0.446391	0.695111	2.301335	-4.221220	-2.762964	0.383537	0.264744	-48.891427	10.325548	-5.281517	70.992932	3.647603	88.414648	-5.896181	-18.752468	190.880835	25.164597
0.120000	-21.515214	1.235371	6.091502	-0.692926	-1.057022	-43.068249	-0.049246	-0.404650	-3.081072	3.037608	-1.535305	-1.653812	0.511078	-1.699377	-2.244700	0.534054	-0.167438	-53.616532	9.567989	-3.618251	66.252226	2.236131	79.750645	-9.737839	-20.822778	190.763229	24.438396
0.130000	-14.315064	0.031941	7.197000	-2.834139	0.065845	-42.130757	-2.172235	0.279824	-3.113630	2.952881	-3.324937	-4.088461	1.086882	-2.112951	-2.094282	0.723276	-0.447403	-55.506004	11.731795	-2.904299	67.865033	5.101314	75.191624	-9.547948	-20.317512	190.744561	27.746506
0.140000	-7.979043	-0.100942	7.545771	-3.735796	0.937617	-40.629383	-2.158201	1.157697	-3.178834	2.699270	-5.593767	-5.578356	1.118349	-2.287116	-1.391554	0.890169	-0.535626	-56.197347	14.616670	-2.175902	70.012955	7.877264	71.152625	-8.969369	-21.003775	187.560761	29.825866
0.150000	-3.745379	-0.077012	7.467293	-2.750300	1.718032	-38.574878	-1.385358	1.706114	-3.165255	2.374095	-7.546050	-6.711485	0.668648	-1.907302	-1.044988	1.087756	-0.479707	-56.572699	16.004486	-2.387690	70.616560	9.000115	67.036763	-7.486733	-21.740963	183.423346	31.690221
0.160000	-0.960200	0.400193	7.129291	-1.156382	2.032623	-36.371503	-0.562712	1.552417	-3.132569	2.017145	-8.111204	-6.692534	0.427212	-2.429938	-0.535675	1.309041	-0.307679	-55.790544	18.911695	-2.099556	72.780691	11.227254	64.427551	-5.809025	-21.695251	179.655576	34.006525
0.170000	2.977270	-2.048917	5.240581	-0.092452	2.872736	-35.210390	1.780968	1.866849	-2.959741	1.761809	-7.544918	-7.029442	1.212411	-0.375498	-0.087327	1.702474	-0.072136	-52.020751	7.205476	-5.723250	68.554750	5.937000	63.528587	12.731195	-22.935104	175.383908	36.096144
0.180000	3.454986	-2.588481	3.253774	1.282069	2.938305	-33.342637	2.271514	3.302282	-2.960178	1.542213	-3.625726	-4.713571	0.309491	-0.575228	0.266548	1.914594	0.025750	-49.040985	6.858491	-9.714041	60.334817	-1.076109	59.404648	16.990926	-24.044873	166.165352	32.589875
0.190000	3.383801	-2.333773	3.524305	1.710791	1.490264	-31.897340	2.123982	4.189913	-3.030130	1.425817	-1.665824	-3.069312	0.029928	-0.446262	-0.269602	2.052234	0.172565	-46.661574	8.661400	-8.666201	55.933468	-4.352046	54.803383	15.917632	-24.854714	158.565831	30.987829
0.200000	5.170095	-2.211850	5.265882	0.941687	0.224539	-31.011380	2.391569	4.549047	-3.247483	1.345259	0.168960	-2.356121	0.049951	-0.200907	0.284388	2.176650	0.418667	-43.337144	8.845552	-3.769380	55.355327	-5.938055	49.514918	14.633490	-32.669780	151.252538	30.031778
0.210000	7.233665	-1.631424	4.225108	0.228866	-0.214956	-30.065268	1.555074	4.694640	-3.409753	1.354897	2.278201	-2.686066	-0.073247	1.363542	-0.080228	2.352390	0.414398	-41.916918	10.960935	-5.055217	52.302128	-8.067831	45.041845	12.183718	-40.166639	143.756855	27.788371
0.220000	8.632156	-1.786765	3.312702	0.124153	-0.467249	-29.571004	0.913854	5.075344	-3.527071	1.394219	2.655893	-3.045050	-0.141512	1.336932	-0.037531	2.391138	0.427892	-40.458815	9.377698	-5.293126	52.132094	-8.546595	41.508058	12.902141	-43.794456	137.994039	27.186487
0.230000	9.374506	-1.733067	2.874598	0.278357	-0.873369	-29.243641	0.690160	5.360967	-3.631801	1.381591	2.160367	-3.106038	0.025924	1.153070	-0.025005	2.353423	0.481760	-38.779853	10.299796	-4.308933	52.079406	-9.013214	38.962124	12.353492	-46.320498	132.969224	26.174951
0.240000	9.709291	-1.684501	2.211910	0.485107	-1.153543	-28.937669	0.722943	5.627014	-3.671324	1.346785	1.444172	-3.346279	0.024916	1.229288	-0.223671	2.309113	0.602696	-37.825290	10.815158	-4.216738	51.940106	-9.425190	36.524958	12.772503	-48.011184	128.363264	24.988361
